<svg id="checked" xmlns="http://www.w3.org/2000/svg" width="19.977" height="19.977" viewBox="0 0 19.977 19.977">
  <g id="Group_70" data-name="Group 70" transform="translate(4.743 2.51)">
    <g id="Group_69" data-name="Group 69">
      <path id="Path_135" data-name="Path 135" d="M136.23,64.549a.753.753,0,0,0-1.065,0l-9.032,9.008-3.259-3.539a.753.753,0,0,0-1.108,1.02l3.79,4.116a.752.752,0,0,0,.538.243h.016a.754.754,0,0,0,.532-.22l9.587-9.562A.753.753,0,0,0,136.23,64.549Z" transform="translate(-121.568 -64.327)" fill="#c1ab88"/>
    </g>
  </g>
  <g id="Group_72" data-name="Group 72">
    <g id="Group_71" data-name="Group 71">
      <path id="Path_136" data-name="Path 136" d="M19.224,9.236a.753.753,0,0,0-.753.753A8.483,8.483,0,1,1,9.989,1.506.753.753,0,1,0,9.989,0a9.989,9.989,0,1,0,9.989,9.989A.753.753,0,0,0,19.224,9.236Z" fill="#c1ab88"/>
    </g>
  </g>
</svg>
