<svg xmlns="http://www.w3.org/2000/svg" width="257.417" height="78.049" viewBox="0 0 257.417 78.049">
  <g id="logo-cp-groupe" transform="translate(-21.65 -23.39)">
    <g id="Group_1" data-name="Group 1" transform="translate(21.65 23.39)">
      <path id="Path_1" data-name="Path 1" d="M89.281,74.714H73.327V88.587H69.1V70.459H85.115V56.729H69.1a4.252,4.252,0,0,1,4.25-4.25l15.936-.009ZM69.072,39.005H82.709a4.254,4.254,0,0,1-4.255,4.255H69.077V39.005ZM54.739,56.729H38.724v13.73H54.739v4.255H34.511V52.47H54.739ZM21.65,101.439h80.487V23.39H21.65Z" transform="translate(-21.65 -23.39)" fill="#db0d1f"/>
    </g>
    <path id="Path_2" data-name="Path 2" d="M69.568,90.259H53.553v13.73H69.568v4.255H49.34V86H69.568Z" transform="translate(-14.829 -33.53)" fill="#fff"/>
    <g id="Group_2" data-name="Group 2" transform="translate(69.072 39.005)">
      <path id="Path_3" data-name="Path 3" d="M123.75,57.01h13.637a4.254,4.254,0,0,1-4.255,4.255h-9.378V57.01Z" transform="translate(-123.75 -57.01)" fill="#fff"/>
      <path id="Path_4" data-name="Path 4" d="M143.976,108.243H128.031v13.874H123.8V103.989h16.019V90.259H123.8a4.252,4.252,0,0,1,4.25-4.25L143.986,86v22.243Z" transform="translate(-123.777 -72.535)" fill="#fff"/>
    </g>
    <path id="Path_5" data-name="Path 5" d="M226.7,108.254c-4.371,0-7.083-2.61-7.083-6.414V91.654c0-3.809,2.712-6.414,7.083-6.414h2.044c3.558,0,5.286,1.551,6.767,4.3a.637.637,0,0,1,.07.283.335.335,0,0,1-.214.316l-3.665,1.728a.362.362,0,0,1-.177.037.377.377,0,0,1-.385-.246c-.669-1.412-1.551-2.044-2.536-2.044h-1.9a2.111,2.111,0,0,0-2.22,2.044v10.186a2.111,2.111,0,0,0,2.22,2.044h1.9c.985,0,1.867-.669,2.536-2.081a.437.437,0,0,1,.385-.246.362.362,0,0,1,.177.037l3.665,1.76a.336.336,0,0,1,.214.283.7.7,0,0,1-.07.246c-1.375,2.75-3.242,4.371-6.767,4.371H226.7Z" transform="translate(-106.019 -33.123)" fill="#db0d1f"/>
    <path id="Path_6" data-name="Path 6" d="M268.473,108.351a.316.316,0,0,1-.353-.353v-21.5a.316.316,0,0,1,.353-.353h7.789c4.3,0,7.013,2.61,7.013,6.8,0,3.595-2.787,6.345-7.013,6.345h-2.819c-.283,0-.39.107-.39.353V108a.316.316,0,0,1-.353.353h-4.227Zm7.789-13.465a2.112,2.112,0,0,0,2.151-2.011v-.316a2.139,2.139,0,0,0-2.151-2.044h-2.819c-.283,0-.39.139-.39.386v3.632c0,.246.107.353.39.353Z" transform="translate(-131.993 -33.605)" fill="#db0d1f"/>
    <path id="Path_7" data-name="Path 7" d="M321.521,108.3c-3.734,0-6.131-2.364-6.131-5.783V91.163c0-3.418,2.4-5.783,6.131-5.783h1.765a5.708,5.708,0,0,1,4.724,1.9,3.623,3.623,0,0,1,.739,1.129.39.39,0,0,1-.246.32l-1.268.632a1.057,1.057,0,0,1-.386.139.268.268,0,0,1-.246-.139,4.135,4.135,0,0,0-3.312-1.941h-1.765a3.672,3.672,0,0,0-3.734,3.739v11.352a3.745,3.745,0,0,0,3.734,3.771h1.091a3.823,3.823,0,0,0,3.772-3.771V99.695c0-.246-.107-.353-.353-.353h-3.7c-.246,0-.353-.107-.353-.353V97.651c0-.246.107-.353.353-.353h6.1c.246,0,.353.1.353.353v4.863c0,3.418-2.434,5.783-6.168,5.783Z" transform="translate(-157.307 -33.198)" fill="#db0d1f"/>
    <path id="Path_8" data-name="Path 8" d="M362.983,108.394c-.246,0-.353-.107-.353-.353V86.573c0-.246.107-.353.353-.353h6.837c3.739,0,6.168,2.364,6.168,6.1V92.7a5.815,5.815,0,0,1-3.349,4.649c-.139.07-.214.139-.214.246a1.465,1.465,0,0,0,.139.423l3.172,9.2a4.748,4.748,0,0,1,.283.882c0,.176-.107.283-.353.283h-1.9a.337.337,0,0,1-.316-.246l-3.386-9.8a.268.268,0,0,0-.283-.209h-4.44c-.246,0-.353.1-.353.353v9.554c0,.246-.107.353-.353.353Zm6.837-12.267a3.792,3.792,0,0,0,3.809-3.8V91.97a3.775,3.775,0,0,0-3.809-3.734h-4.477c-.246,0-.353.1-.353.353v7.19c0,.246.107.353.353.353h4.477Z" transform="translate(-182.606 -33.648)" fill="#db0d1f"/>
    <path id="Path_9" data-name="Path 9" d="M414.871,108.3c-3.734,0-6.131-2.364-6.131-5.783V91.163c0-3.418,2.4-5.783,6.131-5.783h1.091c3.734,0,6.168,2.364,6.168,5.783v11.352c0,3.418-2.434,5.783-6.168,5.783Zm1.1-2.011a3.823,3.823,0,0,0,3.771-3.771V91.163a3.749,3.749,0,0,0-3.771-3.739h-1.092a3.672,3.672,0,0,0-3.734,3.739v11.352a3.745,3.745,0,0,0,3.734,3.771Z" transform="translate(-207.299 -33.198)" fill="#db0d1f"/>
    <path id="Path_10" data-name="Path 10" d="M462.116,108.747c-3.739,0-6.136-2.364-6.136-5.783V86.573c0-.246.107-.353.353-.353h1.691c.246,0,.353.107.353.353v16.391a3.746,3.746,0,0,0,3.739,3.771h1.092a3.823,3.823,0,0,0,3.771-3.771V86.573c0-.246.107-.353.353-.353h1.691c.246,0,.353.107.353.353v16.391c0,3.418-2.434,5.783-6.168,5.783Z" transform="translate(-232.598 -33.648)" fill="#db0d1f"/>
    <path id="Path_11" data-name="Path 11" d="M506.083,108.394c-.246,0-.353-.107-.353-.353V86.573c0-.246.107-.353.353-.353h6.837c3.739,0,6.168,2.4,6.168,6.1,0,3.274-2.434,5.815-6.168,5.815h-4.478c-.246,0-.353.1-.353.353v9.554c0,.246-.107.353-.353.353Zm6.837-12.267a3.792,3.792,0,0,0,3.809-3.8V91.97a3.775,3.775,0,0,0-3.809-3.734h-4.478c-.246,0-.353.1-.353.353v7.19c0,.246.107.353.353.353h4.478Z" transform="translate(-259.241 -33.648)" fill="#db0d1f"/>
    <path id="Path_12" data-name="Path 12" d="M549.8,108.394c-.246,0-.353-.107-.353-.353V86.573c0-.246.107-.353.353-.353h11.561c.246,0,.353.107.353.353v1.305c0,.246-.107.353-.353.353h-9.2c-.246,0-.353.1-.353.353v7.19c0,.246.107.353.353.353h7.543c.246,0,.353.107.353.353v1.305c0,.246-.107.353-.353.353h-7.543c-.246,0-.353.1-.353.353v7.543c0,.246.107.353.353.353h9.2c.246,0,.353.107.353.353v1.305c0,.246-.107.353-.353.353H549.8Z" transform="translate(-282.654 -33.648)" fill="#db0d1f"/>
  </g>
</svg>
