<svg xmlns="http://www.w3.org/2000/svg" width="77.587" height="77.587" viewBox="0 0 77.587 77.587">
  <g id="logo" transform="translate(133 -92)">
    <ellipse id="Ellipse_4" data-name="Ellipse 4" cx="33.828" cy="33.828" rx="33.828" ry="33.828" transform="translate(-128.034 96.966)" fill="#c1ab88"/>
    <path id="Ellipse_5" data-name="Ellipse 5" d="M28.794-10A38.794,38.794,0,1,1-10,28.794,38.838,38.838,0,0,1,28.794-10Zm0,74.905A36.112,36.112,0,1,0-7.318,28.794,36.152,36.152,0,0,0,28.794,64.905Z" transform="translate(-123 102)" fill="#c1ab88"/>
    <g id="Group_26" data-name="Group 26" transform="translate(-111.894 138.907)">
      <path id="Path_49" data-name="Path 49" d="M166.219,353.986c-.314-1.414-1.839-2.018-3.208-2a3.74,3.74,0,0,0-2.848,1.188,2.053,2.053,0,0,0-.381,1.458c.113,1.615,1.884,1.817,3.566,1.974,2.154.27,4.823.83,5.427,3.342a5.6,5.6,0,0,1,.113,1.031c0,3.028-3.005,4.778-5.832,4.778-2.422,0-5.36-1.435-5.653-4.239l-.023-.426,2.288-.044.023.337v-.09c.157,1.458,1.928,2.221,3.386,2.221,1.682,0,3.522-.943,3.522-2.557a2.54,2.54,0,0,0-.067-.538c-.27-1.188-1.884-1.391-3.455-1.548-2.445-.247-5.316-.785-5.563-4.06v.023a4.243,4.243,0,0,1,.853-2.983,6.056,6.056,0,0,1,4.755-2.087c2.422,0,4.935,1.257,5.339,4.128l-2.244.09Z" transform="translate(-157.38 -349.77)" fill="#fff"/>
      <path id="Path_50" data-name="Path 50" d="M267.265,351.21v15.66H265V351.21Z" transform="translate(-250.567 -351.017)" fill="#fff"/>
      <path id="Path_51" data-name="Path 51" d="M311.045,366.631H308.78v-15.7h1.839l5.181,7.627,5.181-7.627h1.794v15.7h-2.244V355.574l-4.105,6.1h-1.278l-4.105-6.1v11.057Z" transform="translate(-288.476 -350.774)" fill="#fff"/>
    </g>
    <g id="Group_27" data-name="Group 27" transform="translate(-112.739 106.686)">
      <path id="Path_52" data-name="Path 52" d="M297.15,137.344V135.07l2.906-2.822c6.99-6.653,10.148-10.19,10.19-14.316,0-2.779-1.348-5.348-5.431-5.348A9.323,9.323,0,0,0,299,114.9l-1.179-2.611a12.009,12.009,0,0,1,7.747-2.779c5.9,0,8.379,4.042,8.379,7.958,0,5.053-3.664,9.137-9.432,14.7l-2.19,2.021v.085h12.3v3.074H297.15Z" transform="translate(-277.561 -109.51)" fill="#fff"/>
      <path id="Path_53" data-name="Path 53" d="M151.08,137.353v-3.074h12.3v-.084l-2.19-2.021c-5.768-5.559-9.432-9.642-9.432-14.7,0-3.916,2.484-7.958,8.379-7.958a12.009,12.009,0,0,1,7.747,2.779L166.7,114.91a9.322,9.322,0,0,0-5.811-2.316c-4.085,0-5.431,2.568-5.431,5.348.042,4.127,3.2,7.663,10.19,14.316l2.906,2.822v2.274H151.08Z" transform="translate(-151.08 -109.519)" fill="#fff"/>
    </g>
  </g>
</svg>
