<?xml version="1.0" encoding="UTF-8"?>
<svg id="Calque_2" data-name="Calque 2" xmlns="http://www.w3.org/2000/svg" viewBox="0 0 166.42 83.21">
  <g id="Calque_1-2" data-name="Calque 1">
    <polygon points=".12 83.09 .12 76.13 6.75 76.13 6.81 79.47 8.21 79.47 8.21 73.8 56.83 73.8 96.55 72.1 146.42 71.16 166.3 70.79 166.3 83.09 .12 83.09" fill="#c7c5c2" stroke-width="0"/>
    <path d="m6.77,76.14H.14m6.68,3.32l-.05-3.32m1.45,3.32h-1.4m1.4-5.66v5.66m48.62-5.65H8.22m88.32-1.69l-39.7,1.69m89.57-2.63l-49.86.94m69.74-1.31l-19.88.37M.14,83.07h166.14" fill="none" stroke="#000" stroke-linecap="round" stroke-linejoin="round" stroke-width=".28"/>
    <polygon points="95.45 49.57 69.98 49.57 69.92 49.63 70.32 54.82 94.47 54.82 94.47 58.14 95.45 58.4 95.45 49.57" fill="#999" stroke-width="0"/>
    <polygon points="68.51 49.64 27.3 49.64 27.83 49.71 27.93 49.86 27.79 49.96 26.19 49.72 31.43 54.82 36.06 54.82 36.06 49.84 36.87 49.84 36.87 54.82 41.21 54.82 41.21 58.14 41.6 58.14 68.84 58.14 68.84 49.75 68.45 49.95 68.28 49.89 68.34 49.73 68.51 49.64" fill="#999" stroke-width="0"/>
    <polygon points="82.12 1.72 36.87 1.72 36.87 16.32 47.25 16.32 48.46 16.32 48.57 16.32 50.39 16.32 50.51 16.32 54.33 16.32 55.47 16.32 55.47 12.69 55.57 12.54 55.64 12.47 55.72 12.43 55.81 12.42 55.89 12.43 55.97 12.47 56.04 12.54 56.09 12.62 56.13 12.72 56.14 12.82 56.14 16.32 67.92 16.32 68.91 16.32 68.91 11.35 55.14 11.35 55.14 10.02 55.47 10.02 55.49 10.02 55.52 10.02 55.52 9.96 55.57 9.88 55.64 9.82 55.72 9.77 55.81 9.76 55.89 9.77 55.97 9.82 56.04 9.88 56.09 9.96 56.11 10.02 78.22 10.02 82.12 10.02 82.12 1.72" fill="#999" stroke-width="0"/>
    <polygon points="95.51 59.23 69.86 59.23 69.99 60.95 69.99 66.43 70.41 66.43 70.41 68.79 76.13 68.79 76.13 66.43 91.37 66.43 91.37 68.79 93.47 68.79 93.47 66.43 95.38 66.43 95.38 68.79 95.51 68.79 95.51 59.23" fill="#999" stroke-width="0"/>
    <path d="m139.33,49.57h-42.87l.31,5.24h29.74l1.88-4.98h.91v4.98h4.63l5.39-5.24Zm-15.17,5.24v-.07.07Z" fill="#999" stroke-width="0"/>
    <polygon points="140.32 59.23 96.53 59.23 96.63 60.95 96.63 66.43 117.99 66.43 117.99 59.5 126.82 59.5 126.82 67.03 133.7 67.03 133.7 59.5 138.57 59.5 140.32 59.23" fill="#999" stroke-width="0"/>
    <polygon points="36.06 1.72 26.04 1.72 35.13 10.57 35.13 16.32 36.06 16.32 36.06 1.72" fill="#999" stroke-width="0"/>
    <rect x="31.67" y="59.5" width="6.88" height="7.53" fill="#999" stroke-width="0"/>
    <polygon points="68.84 58.14 67.92 58.14 41.6 58.14 41.6 66.79 64.48 66.8 64.48 68.79 66.61 68.79 66.61 66.8 68.91 66.8 68.91 58.46 68.84 58.4 68.84 58.14" fill="#999" stroke-width="0"/>
    <polygon points="68.84 30.33 26.1 30.33 26.1 30.39 31.43 35.57 36.06 35.57 36.06 30.59 36.87 30.59 36.87 35.57 67.92 35.57 67.92 38.89 68.68 39.09 68.71 39.09 68.62 38.96 68.65 38.78 68.83 38.82 68.84 38.84 68.84 30.33" fill="#999" stroke-width="0"/>
    <polygon points="68.91 20.7 26.04 20.7 31.43 25.95 36.06 25.95 36.06 20.97 36.87 20.97 36.87 25.95 67.92 25.95 67.92 29.27 68.91 29.53 68.91 20.7" fill="#999" stroke-width="0"/>
    <polygon points="95.45 39.95 69.98 39.95 69.92 40.01 70.32 45.19 94.47 45.19 94.47 48.51 95.45 48.78 95.45 39.95" fill="#999" stroke-width="0"/>
    <polygon points="95.45 30.33 69.92 30.33 70.32 35.57 94.47 35.57 94.47 38.89 95.45 39.15 95.45 30.33" fill="#999" stroke-width="0"/>
    <polygon points="95.45 20.7 69.92 20.7 70.32 25.95 94.47 25.95 94.47 29.27 95.45 29.53 95.45 20.7" fill="#999" stroke-width="0"/>
    <polygon points="139.33 39.95 96.46 39.95 96.78 45.19 126.52 45.19 128.4 40.22 129.31 40.22 129.31 45.19 133.94 45.19 139.33 39.95" fill="#999" stroke-width="0"/>
    <polygon points="139.33 30.33 96.46 30.33 96.78 35.57 126.52 35.57 128.4 30.59 129.31 30.59 129.31 35.57 133.94 35.57 139.33 30.33" fill="#999" stroke-width="0"/>
    <polygon points="139.33 20.7 96.46 20.7 96.78 25.95 126.52 25.95 128.4 20.97 129.31 20.97 129.31 25.95 133.94 25.95 139.33 20.7" fill="#999" stroke-width="0"/>
    <rect x="6.81" y="70.44" width="1.4" height="9.02" stroke-width="0"/>
    <polygon points="139.33 1.72 130.24 1.72 130.24 10.57 139.33 1.72" fill="#999" stroke-width="0"/>
    <polygon points="128.5 1.72 83.6 1.72 83.6 10.02 110.11 10.02 110.11 11.35 109.78 11.35 109.78 16.32 117.12 16.32 117.19 16.32 123.76 16.32 123.78 16.32 123.87 16.32 123.87 13.91 123.78 13.99 123.76 13.99 123.76 13.96 123.3 14.3 122.84 14.61 122.38 14.89 121.91 15.13 121.45 15.34 121 15.51 120.55 15.64 120.13 15.73 119.72 15.79 119.33 15.8 118.97 15.76 118.63 15.69 118.33 15.58 118.05 15.43 117.81 15.24 117.61 15.01 117.44 14.75 117.32 14.45 117.23 14.12 117.23 14.12 117.3 13.76 117.42 13.32 117.57 12.87 117.77 12.42 118 11.95 118.14 11.72 118.36 11.35 118.42 11.25 118.73 10.79 119.08 10.34 119.45 9.89 119.84 9.46 120.26 9.05 120.69 8.66 121.13 8.3 121.54 7.99 121.59 7.95 122.05 7.64 122.52 7.37 122.98 7.12 123.44 6.91 123.76 6.79 123.76 6.84 123.78 6.85 123.85 6.82 123.87 6.82 123.87 10.05 123.87 10.1 123.92 10.1 123.92 10.02 124.13 10.02 124.13 11.35 124.17 11.35 124.17 13.19 128.5 1.72" fill="#999" stroke-width="0"/>
    <polygon points="67.92 16.32 67.92 19.64 68.91 19.91 68.91 16.32 67.92 16.32" fill="#999" stroke-width="0"/>
    <polygon points="109.11 11.35 96.47 11.35 96.76 16.32 109.11 16.32 109.11 11.35" fill="#999" stroke-width="0"/>
    <polygon points="95.45 11.08 69.92 11.08 70.32 16.32 94.47 16.32 94.47 19.64 95.45 19.91 95.45 11.08" fill="#999" stroke-width="0"/>
    <path d="m68.91,58.4h1.01m0,0v-8.82m.61,5.24v-4.97m53.62,0v4.97m-82.94,0v-4.97m43.79,0v4.97m-4.65-4.97v4.97m37.62,4.68v9.29" fill="none" stroke="#000" stroke-linecap="round" stroke-linejoin="round" stroke-width=".14"/>
    <polygon points="68.91 49.51 68.84 49.57 68.91 49.64 69.92 49.64 69.98 49.57 69.92 49.51 68.91 49.51" stroke-width="0"/>
    <polygon points="68.84 49.57 68.84 58.4 68.91 58.46 68.97 58.4 68.97 49.57 68.91 49.51 68.84 49.57" stroke-width="0"/>
    <path d="m35.14,54.81v-4.96m.91,4.96v-4.96" fill="none" stroke="#000" stroke-linecap="round" stroke-linejoin="round" stroke-width=".14"/>
    <polygon points="25.98 49.57 25.98 58.4 26.04 58.46 26.1 58.4 26.1 49.57 26.04 49.51 25.98 49.57" stroke-width="0"/>
    <polygon points="24.99 49.57 24.99 58.4 25.05 58.46 25.11 58.4 25.11 49.57 25.05 49.51 24.99 49.57" stroke-width="0"/>
    <path d="m70.41,68.78v-9.29m-31.85,9.29v-9.29m-6.88,9.29v-9.29M83.13,1.73h57.18m-.99,18.18V1.73m.99,18.18V.54m-103.43,15.79V1.73m-11.82,18.18V1.73m0,0h.99m0,18.18V1.73m9.09,14.6V1.73m.93,14.6V1.73m59.44,57.5h1.01m0,9.56v-9.56m.1,9.56v-9.29m-1.24,9.29v-9.29m.13,9.29v-9.56m-26.6,0h.95m0,9.56v-9.56m.13,9.56v-9.29m-1.08,9.29v-10.39m12.88-48.37V1.73m.33,18.18h1.01m47.1,34.9v-4.98m9.09,8.56v-8.82m.99,8.82v-8.82m-11.82,5.24v-4.98m.81,4.98v-4.98m-33.85,8.56v-8.82m0,0h1.01m-1.62,5.24v-4.98m.61,8.56h1.01m0,0v-8.82m-59.58,5.24v-4.98" fill="none" stroke="#000" stroke-linecap="round" stroke-linejoin="round" stroke-width=".14"/>
    <polygon points="68.84 39.95 68.84 48.78 68.91 48.84 68.97 48.78 68.97 39.95 68.91 39.89 68.84 39.95" stroke-width="0"/>
    <line x1="69.92" y1="48.77" x2="69.92" y2="39.96" fill="none" stroke="#000" stroke-linecap="round" stroke-linejoin="round" stroke-width=".14"/>
    <polygon points="68.91 48.72 68.84 48.78 68.91 48.84 69.92 48.84 69.98 48.78 69.92 48.72 68.91 48.72" stroke-width="0"/>
    <polygon points="68.91 39.89 68.84 39.95 68.91 40.01 69.92 40.01 69.98 39.95 69.92 39.89 68.91 39.89" stroke-width="0"/>
    <polygon points="24.99 39.95 24.99 48.78 25.05 48.84 25.11 48.78 25.11 39.95 25.05 39.89 24.99 39.95" stroke-width="0"/>
    <polygon points="25.98 39.95 25.98 48.78 26.04 48.84 26.1 48.78 26.1 39.95 26.04 39.89 25.98 39.95" stroke-width="0"/>
    <path d="m140.31,48.77v-8.81m-.99,8.81v-8.81m-43.86,0h1.01m-1.01,8.81h1.01m0,0v-8.81m-1.01,8.81v-8.81" fill="none" stroke="#000" stroke-linecap="round" stroke-linejoin="round" stroke-width=".14"/>
    <polygon points="68.84 30.33 68.84 39.15 68.91 39.22 68.97 39.15 68.97 30.33 68.91 30.26 68.84 30.33" stroke-width="0"/>
    <line x1="69.92" y1="39.15" x2="69.92" y2="30.34" fill="none" stroke="#000" stroke-linecap="round" stroke-linejoin="round" stroke-width=".14"/>
    <polygon points="68.91 39.09 68.84 39.15 68.91 39.22 69.92 39.22 69.98 39.15 69.92 39.09 68.91 39.09" stroke-width="0"/>
    <line x1="68.91" y1="30.33" x2="69.91" y2="30.33" fill="none" stroke="#000" stroke-linecap="round" stroke-linejoin="round" stroke-width=".14"/>
    <polygon points="24.99 30.33 24.99 39.15 25.05 39.22 25.11 39.15 25.11 30.33 25.05 30.26 24.99 30.33" stroke-width="0"/>
    <polygon points="25.98 30.33 25.98 39.15 26.04 39.22 26.1 39.15 26.1 30.33 26.04 30.26 25.98 30.33" stroke-width="0"/>
    <path d="m55.48,16.33v-4.98m0,4.98v-4.98m.66-1.33V1.73m0,14.6v-4.98m4.3-4.65V1.76m4.3,0v4.94m-23.28,9.62V1.73m.15,8.29h13.54m0,1.33h-13.54m0,4.98V1.73m4.62,0v14.6m4.62,0V1.73m18.29,0v4.98m6.32-4.98v4.98m-6.42,0V1.73m54.72,53.08v-4.98m-82.15,8.29v-8.29m59.76,4.98v-4.98m-4.39,0v4.98m13.18,0v-4.98m-4.39,4.98v-4.98m4.5,0v4.98m-20.33,0v-4.98m-14.48,4.98v-4.98m39.31,4.98v-4.98m4.5,0v4.98m-.02-4.94v.05m-50.84-.08v18.91m-7.96-57.36v4.94m4.29-4.98v4.98m-23.21,43.16v9.29m0-8.29v.63m0-.63v.63m0-.63v.63m0,0v-.63m0,0v.63m13.72,7.67v-18.95m-6.81,0v18.95m-6.91-8.29v.63m.1-1.62v9.29m0-9.97h27.29m-6.87,9.97v-18.95m71.66,18.95v-9.29m-6.88,9.29v-9.29m12.51-29.96v-8.82m.99,8.82v-8.82m-44.86,8.82v-8.82m0,0h1.01m-1.01,8.82h1.01m0,0v-8.82M25.06,29.53v-8.82m.99,8.82v-8.82m42.86,8.82v-8.82m0,0h1.01m-1.01,8.82h1.01m0,0v-8.82m70.39,18.44v-8.82m-.99,8.82v-8.82m-43.87,0h1.01m-1.01,8.82h1.01m0,0v-8.82m-1.01,8.82v-8.82" fill="none" stroke="#000" stroke-linecap="round" stroke-linejoin="round" stroke-width=".14"/>
    <polygon points="41.14 40.22 41.14 45.19 41.2 45.26 41.27 45.19 41.27 40.22 41.2 40.15 41.14 40.22" stroke-width="0"/>
    <polygon points="35.07 40.22 35.07 45.19 35.13 45.26 35.2 45.19 35.2 40.22 35.13 40.15 35.07 40.22" stroke-width="0"/>
    <polygon points="46.04 40.22 46.04 45.19 46.11 45.26 46.17 45.19 46.17 40.22 46.11 40.15 46.04 40.22" stroke-width="0"/>
    <polygon points="50.55 40.22 50.55 45.19 50.61 45.26 50.67 45.19 50.67 40.22 50.61 40.15 50.55 40.22" stroke-width="0"/>
    <polygon points="55.05 40.22 55.05 45.19 55.11 45.26 55.17 45.19 55.17 40.22 55.11 40.15 55.05 40.22" stroke-width="0"/>
    <polygon points="68.33 40.22 68.33 45.19 68.39 45.26 68.46 45.19 68.46 40.22 68.39 40.15 68.33 40.22" stroke-width="0"/>
    <polygon points="59.54 40.22 59.54 45.19 59.6 45.26 59.67 45.19 59.67 40.22 59.6 40.15 59.54 40.22" stroke-width="0"/>
    <polygon points="55.15 40.22 55.15 45.19 55.21 45.26 55.27 45.19 55.27 40.22 55.21 40.15 55.15 40.22" stroke-width="0"/>
    <polygon points="63.94 40.22 63.94 45.19 64 45.26 64.06 45.19 64.06 40.22 64 40.15 63.94 40.22" stroke-width="0"/>
    <polygon points="41.54 40.22 41.54 45.19 41.6 45.26 41.67 45.19 41.67 40.22 41.6 40.15 41.54 40.22" stroke-width="0"/>
    <path d="m69.91,48.77v-8.82m.61,5.24v-4.97m14.47,0v4.97m-4.64-4.97v4.97m-38.75-19.24v-4.97m22.39,0v4.97m-8.79,0v-4.97m4.39,0v4.97m8.79-4.97v4.97m-13.28-4.97v4.97m-4.5,0v-4.97m-4.5,4.97v-4.97m-10.97,4.97v-4.97m6.07,4.97v-4.97m.4,14.59v-4.97m22.39,0v4.97m-8.79,0v-4.97m4.39,0v4.97m8.79-4.97v4.97m-13.28-4.97v4.97m-4.5,0v-4.97m-4.5,4.97v-4.97m-10.97,4.97v-4.97m6.07,4.97v-4.97" fill="none" stroke="#000" stroke-linecap="round" stroke-linejoin="round" stroke-width=".14"/>
    <polygon points="68.91 48.72 68.84 48.78 68.91 48.84 69.92 48.84 69.98 48.78 69.92 48.72 68.91 48.72" stroke-width="0"/>
    <polygon points="68.91 39.89 68.84 39.95 68.91 40.01 69.92 40.01 69.98 39.95 69.92 39.89 68.91 39.89" stroke-width="0"/>
    <polygon points="68.84 39.95 68.84 48.78 68.91 48.84 68.97 48.78 68.97 39.95 68.91 39.89 68.84 39.95" stroke-width="0"/>
    <path d="m69.93,39.15v-8.82m.61,5.24v-4.97m14.47,0v4.97m-4.64-4.97v4.97m9.56,9.61v-4.97m-14.47,4.97v-4.97m19.38,4.97v-4.97" fill="none" stroke="#000" stroke-linecap="round" stroke-linejoin="round" stroke-width=".14"/>
    <polygon points="68.91 39.09 68.84 39.15 68.91 39.22 69.92 39.22 69.98 39.15 69.92 39.09 68.91 39.09" stroke-width="0"/>
    <line x1="68.91" y1="30.33" x2="69.91" y2="30.33" fill="none" stroke="#000" stroke-linecap="round" stroke-linejoin="round" stroke-width=".14"/>
    <polygon points="68.84 30.33 68.84 39.15 68.91 39.22 68.97 39.15 68.97 30.33 68.91 30.26 68.84 30.33" stroke-width="0"/>
    <path d="m89.92,25.95v-4.97m-14.47,4.97v-4.97m19.38,4.97v-4.97m-25.92,8.55v-8.82m0,0h1.01m-1.01,8.82h1.01m0,0v-8.82m.61,5.24v-4.97m14.47,0v4.97m-4.64-4.97v4.97m9.56,9.61v-4.97m-14.47,4.97v-4.97m19.38,4.97v-4.97" fill="none" stroke="#000" stroke-linecap="round" stroke-linejoin="round" stroke-width=".14"/>
    <polygon points="36 40.22 36 45.19 36.06 45.26 36.13 45.19 36.13 40.22 36.06 40.15 36 40.22" stroke-width="0"/>
    <path d="m69.92,39.15h25.53m44.86,0h-43.85m43.85.8v-.8m-43.85.8h43.85m-70.39-9.62h25.53m-70.39-.8h43.85m-43.85.8v-.8m43.85.8H25.06m44.86-.8h25.53m44.86,0h-43.85m43.85.8v-.8m-43.85.8h43.85m-70.39-9.62h25.53m-70.39-.8h57.06m-57.06.8v-.8m43.85.8H25.06m115.25-.8h-57.18m57.18.8v-.8m-43.85.8h43.85M25.06,58.39h16.55m-16.55.83v-.83m1.75,1.1l-1.75-.27m16.55.27h-14.8m63.11-43.16v-4.98m-14.48,4.98v-4.98m9.56,0v4.98m-4.64-4.98v4.98m16.61-4.98v4.98m-14.85-6.04V.54m1.01,9.75V.54m-14.73,10.82v4.98m2.13,0v-4.98m-1.62,8.56v-8.82m1.01,8.82v-8.82m25.53,8.82v-8.82m1.01,8.82v-9.63m33.77-.25V1.73m-.93,8.29V1.73m-.81,8.29V1.73m-9.47,8.29v6.31m-4.62-6.31V1.73m9.25,8.29h-13.54m0,1.33h13.54m4.85,4.98v-6.31m1.74,6.31v-6.31m-.93,6.31v-6.31m-19.53,0V1.73m0,14.6v-4.98m0,4.98v-4.98m-.66-1.33V1.73m0,14.6v-4.98m-4.3-4.65V1.76m-4.3,0v4.94m23.28,9.62V1.73m-.15,14.6V1.73m-4.62,0v8.29m-4.62,6.31v-6.31M96.11,1.73v4.98m-6.32-4.98v4.98m6.42,0V1.73m8.61,9.65v4.94m-4.29-4.98v4.98m-45.05-6.31V1.73m68.28,24.22v-4.98m-22.39,4.98v-4.98m-4.39,0v4.98m13.18,0v-4.98m-4.39,4.98v-4.98m4.49,0v4.98m4.5,0v-4.98m4.5,0v4.98m10.97,0v-4.98m-1.74,4.98v-4.98m.81,4.98v-4.98m-5.14,0v4.98m-.4,9.62v-4.98m-22.39,4.98v-4.98m-4.39,0v4.98m13.18,0v-4.98m-4.39,4.98v-4.98m4.49,0v4.98m4.5,0v-4.98m4.5,0v4.98m10.97,0v-4.98m-1.74,4.98v-4.98m.81,4.98v-4.98m-5.14,0v4.98m-.4,9.62v-4.98m-22.39,4.98v-4.98m-4.39,0v4.98m13.18,0v-4.98m-4.39,4.98v-4.98m4.49,0v4.98m4.5,0v-4.98m4.5,0v4.98m10.97,0v-4.98m-1.74,4.98v-4.98m.81,4.98v-4.98m-5.14,0v4.98M36.07,25.95v-4.98m0,14.6v-4.98" fill="none" stroke="#000" stroke-linecap="round" stroke-linejoin="round" stroke-width=".14"/>
    <polygon points="25.05 39.89 24.99 39.95 25.05 40.01 68.91 40.01 68.97 39.95 68.91 39.89 25.05 39.89" stroke-width="0"/>
    <polygon points="24.99 39.15 24.99 39.95 25.05 40.01 25.11 39.95 25.11 39.15 25.05 39.09 24.99 39.15" stroke-width="0"/>
    <polygon points="25.05 39.09 24.99 39.15 25.05 39.22 68.91 39.22 68.97 39.15 68.91 39.09 25.05 39.09" stroke-width="0"/>
    <path d="m69.93,48.77h25.53m44.86,0h-43.84m43.84.79v-.79m-43.84.79h43.84m-70.38-9.61h25.53" fill="none" stroke="#000" stroke-linecap="round" stroke-linejoin="round" stroke-width=".14"/>
    <polygon points="25.05 49.51 24.99 49.57 25.05 49.64 68.91 49.64 68.97 49.57 68.91 49.51 25.05 49.51" stroke-width="0"/>
    <polygon points="24.99 48.78 24.99 49.57 25.05 49.64 25.11 49.57 25.11 48.78 25.05 48.72 24.99 48.78" stroke-width="0"/>
    <polygon points="25.05 48.72 24.99 48.78 25.05 48.84 68.91 48.84 68.97 48.78 68.91 48.72 25.05 48.72" stroke-width="0"/>
    <path d="m41.21,54.81v3.32m-13.08-3.32h13.08m-13.08,3.32v-3.32m110.43,4.68h-41.93m43.68-.27l-1.75.27M55.15,11.35v-1.33m13.25,1.33h-13.25m13.25-1.33v1.33m-13.25-1.33h13.25M26.05,1.73h56.07M25.06.54h57.57M25.06,1.73V.54m44.8,58.69h25.65m-25.59-.83h25.53m-70.39.83h16.55m53.77.27h-25.39m70.32-1.1h-43.85m43.85.83v-.83m-43.79.83h43.79m-70.39-9.66h25.53" fill="none" stroke="#000" stroke-linecap="round" stroke-linejoin="round" stroke-width=".14"/>
    <path d="m28.13,58.15l-2.08.23m15.53-.23h-13.45" fill="none" stroke="#000" stroke-linecap="round" stroke-linejoin="round" stroke-width=".28"/>
    <polygon points="25.92 49.56 26.02 49.7 27.79 49.96 27.93 49.86 27.83 49.72 26.06 49.45 25.92 49.56" stroke-width="0"/>
    <line x1="27.83" y1="49.83" x2="68.38" y2="49.83" fill="none" stroke="#000" stroke-linecap="round" stroke-linejoin="round" stroke-width=".28"/>
    <polygon points="68.34 49.73 68.28 49.89 68.45 49.95 68.96 49.69 69.02 49.52 68.85 49.46 68.34 49.73" stroke-width="0"/>
    <polygon points="28.06 45.19 28.06 48.51 28.12 48.57 28.18 48.51 28.18 45.19 28.12 45.13 28.06 45.19" stroke-width="0"/>
    <polygon points="28.12 45.13 28.06 45.19 28.12 45.26 68.72 45.26 68.79 45.19 68.72 45.13 28.12 45.13" stroke-width="0"/>
    <polygon points="68.66 45.19 68.66 48.51 68.72 48.57 68.79 48.51 68.79 45.19 68.72 45.13 68.66 45.19" stroke-width="0"/>
    <polygon points="68.62 48.58 68.8 48.85 68.98 48.88 69.01 48.71 68.83 48.44 68.65 48.41 68.62 48.58" stroke-width="0"/>
    <polygon points="28.12 48.39 28 48.51 28.12 48.64 68.72 48.64 68.85 48.51 68.72 48.39 28.12 48.39" stroke-width="0"/>
    <polygon points="26.02 48.65 25.92 48.79 26.05 48.9 28.14 48.63 28.24 48.5 28.1 48.39 26.02 48.65" stroke-width="0"/>
    <polygon points="25.92 39.93 26.02 40.07 27.79 40.34 27.93 40.23 27.83 40.09 26.06 39.83 25.92 39.93" stroke-width="0"/>
    <polygon points="27.81 40.09 27.68 40.22 27.81 40.34 68.39 40.34 68.52 40.22 68.39 40.09 27.81 40.09" stroke-width="0"/>
    <polygon points="68.34 40.11 68.28 40.27 68.45 40.33 68.96 40.06 69.02 39.89 68.85 39.84 68.34 40.11" stroke-width="0"/>
    <path d="m68.72,35.58v3.3m-40.59-3.3h40.59m-40.59,3.3v-3.3" fill="none" stroke="#000" stroke-linecap="round" stroke-linejoin="round" stroke-width=".14"/>
    <polygon points="68.62 38.96 68.8 39.22 68.98 39.26 69.01 39.08 68.83 38.82 68.65 38.78 68.62 38.96" stroke-width="0"/>
    <line x1="68.71" y1="38.89" x2="28.14" y2="38.89" fill="none" stroke="#000" stroke-linecap="round" stroke-linejoin="round" stroke-width=".28"/>
    <polygon points="26.02 39.03 25.92 39.17 26.05 39.28 28.14 39.01 28.24 38.87 28.1 38.76 26.02 39.03" stroke-width="0"/>
    <path d="m68.38,30.58l.51-.23m-41.07.23h40.55m-42.32-.23l1.77.23" fill="none" stroke="#000" stroke-linecap="round" stroke-linejoin="round" stroke-width=".28"/>
    <path d="m68.72,25.95v3.3m-40.59-3.3h40.59m-40.59,3.3v-3.3" fill="none" stroke="#000" stroke-linecap="round" stroke-linejoin="round" stroke-width=".14"/>
    <path d="m68.38,20.98l.51-.26m-41.07.26h40.55m-42.32-.26l1.77.26m.31,8.27l-2.08.26m42.65-.26H28.14m40.75.26l-.18-.26" fill="none" stroke="#000" stroke-linecap="round" stroke-linejoin="round" stroke-width=".28"/>
    <path d="m96.65,20.98l-.18-.26m41.09.26h-40.91m42.67-.26l-1.77.26m-.31,4.98v3.32m-40.59-3.32h40.59m-40.59,3.32v-3.32m0,3.32l-.18.26m40.77-.26h-40.59m42.67.26l-2.08-.26m-40.59,1.33l-.18-.27m41.09.27h-40.91m42.67-.27l-1.77.27m-.31,4.97v3.32m-40.59-3.32h40.59m-40.59,3.32v-3.32m0,3.32l-.18.27m40.77-.27h-40.59m42.67.27l-2.08-.27m-40.59,1.33l-.18-.27m41.09.27h-40.91m42.67-.27l-1.77.27m-.31,4.98v3.32m-40.59-3.32h40.59m-40.59,3.32v-3.32m0,3.32l-.18.27m40.77-.27h-40.59m42.67.27l-2.08-.27m-40.59,1.33l-.18-.26m41.09.26h-40.91m42.67-.26l-1.77.26m-.31,4.98v3.32m-40.59-3.32h40.59m-40.59,3.32v-3.32m0,3.32l-.18.26m40.77-.26h-40.59m42.67.26l-2.08-.26m-41.97-37.15l.18-.26m-25.35.26h25.17m-25.35-.26l.18.26m25.17,4.98v3.32m-25.17-3.32h25.17m-25.17,3.32v-3.32m25.17,3.32l.18.26m-25.35-.26h25.17m-25.35.26l.18-.26m25.17,1.33l.18-.27m-25.35.27h25.17m-25.35-.27l.18.27m25.17,4.97v3.32m-25.17-3.32h25.17m-25.17,3.32v-3.32m25.17,3.32l.18.27m-25.35-.27h25.17m-25.35.27l.18-.27m25.17,1.33l.18-.27m-25.35.27h25.17m-25.35-.27l.18.27m25.17,4.98v3.32m-25.17-3.32h25.17m-25.17,3.32v-3.32m25.17,3.32l.18.27m-25.35-.27h25.17m-25.35.27l.18-.27m25.17,1.33l.18-.26m-25.35.26h25.17m-25.35-.26l.18.26m25.17,4.98v3.32m-25.17-3.32h25.17m-25.17,3.32v-3.32m25.17,3.32l.18.26m-25.35-.26h25.17m-25.35.26l.18-.26" fill="none" stroke="#000" stroke-linecap="round" stroke-linejoin="round" stroke-width=".14"/>
    <path d="m28.14,19.66l-2.08.23m42.65-.23H28.14m40.75.23l-.18-.23" fill="none" stroke="#000" stroke-linecap="round" stroke-linejoin="round" stroke-width=".28"/>
    <path d="m58.61,70.47l75.09-1.69m-125.48,1.69h50.4m75.96-1.73l31.72,1.76m-141.23-1.76h109.52m-126.36,1.69l16.84-1.69M56.39,6.71v3.32m25.4-3.32h-25.4" fill="none" stroke="#000" stroke-linecap="round" stroke-linejoin="round" stroke-width=".14"/>
    <path d="m96.29,10.02h.68m-.51,1.33h.51m-28.58,0h.51m-.51-1.33h.69m-.36,6.31v3.32m-40.6-3.32h40.6m-40.6,3.32v-3.32m109.11,0v3.32m-40.6-3.32h40.6m-40.6,3.32v-3.32m-.35-6.31l.17.25m-13.33-.25h13.16m-1.02,9.62l.18.27m-25.35-.27h25.17m-25.35.27l.18-.27m26.54,0l-.18.27m40.78-.27h-40.6m42.68.27l-2.08-.27m-68.15-9.62h13.03m-13.21.27l.18-.27m26.18,1.33l.18-.27m-25.35.27h25.17m-25.35-.27l.18.27m-1.19-.27h27.55m-27.55-.8h27.55m-27.55.8v-.8m26.36,6.04v3.32m-25.17-3.32h25.17m-25.17,3.32v-3.32M82.63.54h57.69m-16.21-.47v.5M82.63.07h41.47m-15.24,6.64v3.32m-25.26-3.32h25.26m1.24,4.65v-1.33m-13.13,1.33h13.13m-13.13-1.33v1.33m13.13-1.33h-13.13M41.15.07h41.47m-41.47.47V.07m16.53,70.4h.93m-.93.55v-.55m-.93.55h.93m-.93.55v-.55m-.93.55h.93m-.93.55v-.55m-.93.55h.93m-.93.55v-.55m-.93.55h.93m-.93.55v-.55m-.93.55h.93m-.93.55v-.55m-22.03.55h22.03m-22.03-.55v.55m-.93-.55h.93m-.93-.55v.55m-.93-.55h.93m-.93-.55v.55m-.93-.55h.93m-.93-.55v.55m-.93-.55h.93m-.93-.55v.55m-.93-.55h.93m-.93-.55v.55m-.93-.55h.93" fill="none" stroke="#000" stroke-linecap="round" stroke-linejoin="round" stroke-width=".14"/>
    <line x1="41.61" y1="58.15" x2="41.61" y2="59.48" fill="none" stroke="#000" stroke-linecap="round" stroke-linejoin="round" stroke-width=".28"/>
    <polygon points="26.2 67.65 26.2 67.73 26.39 67.73 26.39 68.48 26.47 68.48 26.47 67.73 26.66 67.73 26.66 67.65 26.2 67.65" stroke-width="0"/>
    <path d="m27.02,67.82l.14.3h-.29l.14-.3Zm-.01-.18l-.4.84h.09l.13-.27h.36l.13.27h.09l-.39-.84h-.02Z" stroke-width="0"/>
    <polygon points="26.88 39.95 27.29 40.01 35.13 40.01 35.13 39.95 26.88 39.95" fill="#2c0d0f" stroke-width="0"/>
    <rect x="25.05" y="40.01" width=".06" height="8.7" fill="#2c0d0f" stroke-width="0"/>
    <polygon points="25.98 48.71 26.02 48.65 26.1 48.64 26.1 40.09 26.02 40.07 25.98 40.01 25.98 48.71" fill="#2c0d0f" stroke-width="0"/>
    <rect x="35.07" y="40.34" width=".06" height="4.79" fill="#2c0d0f" stroke-width="0"/>
    <polygon points="25.11 39.95 25.05 40.01 25.11 40.01 25.98 40.01 25.93 39.95 25.11 39.95" fill="#2c0d0f" stroke-width="0"/>
    <polygon points="25.05 39.95 25.05 40.01 25.11 39.95 25.05 39.95" fill="#2c0d0f" stroke-width="0"/>
    <polygon points="25.11 48.72 25.05 48.72 25.05 48.78 25.93 48.78 25.98 48.72 25.11 48.72" fill="#2c0d0f" stroke-width="0"/>
    <polygon points="28.06 48.39 28.1 48.39 28.11 48.4 28.12 48.39 28.18 48.39 28.18 45.26 28.12 45.26 28.06 45.19 28.06 48.39" fill="#2c0d0f" stroke-width="0"/>
    <polygon points="27.51 48.72 27.02 48.78 35.13 48.78 35.13 48.72 27.51 48.72" fill="#2c0d0f" stroke-width="0"/>
    <polygon points="35.07 45.13 31.36 45.13 28.12 45.13 28.06 45.19 28.12 45.26 28.18 45.26 35.13 45.26 35.13 45.13 35.07 45.13" fill="#2c0d0f" stroke-width="0"/>
    <polygon points="28.18 48.39 28.12 48.39 28.11 48.4 28.24 48.5 28.14 48.63 28.12 48.64 35.13 48.64 35.13 48.39 28.18 48.39" fill="#2c0d0f" stroke-width="0"/>
    <polygon points="28.06 48.39 26.1 48.64 26.02 48.65 25.98 48.71 25.98 48.72 25.93 48.78 27.02 48.78 27.51 48.72 28.12 48.64 28.14 48.63 28.24 48.5 28.11 48.4 28.1 48.39 28.06 48.39" fill="#2c0d0f" stroke-width="0"/>
    <polygon points="25.93 39.95 25.98 40.01 25.98 40.01 26.02 40.07 26.1 40.09 26.19 40.1 27.79 40.34 27.8 40.33 27.68 40.22 27.81 40.09 27.82 40.09 27.29 40.01 26.88 39.95 25.93 39.95" fill="#2c0d0f" stroke-width="0"/>
    <polygon points="27.82 40.09 27.81 40.09 27.68 40.22 27.8 40.33 27.81 40.34 35.07 40.34 35.13 40.34 35.13 40.09 27.82 40.09" fill="#2c0d0f" stroke-width="0"/>
  </g>
</svg>