<svg xmlns="http://www.w3.org/2000/svg" xmlns:xlink="http://www.w3.org/1999/xlink" width="166" height="94" viewBox="0 0 166 94">
  <defs>
    <clipPath id="clip-path">
      <rect id="Rectangle_32" data-name="Rectangle 32" width="166" height="94" transform="translate(5117 -1382)" fill="#fff" stroke="#707070" stroke-width="1"/>
    </clipPath>
  </defs>
  <g id="Mask_Group_1" data-name="Mask Group 1" transform="translate(-5117 1382)" clip-path="url(#clip-path)">
    <g id="Calque_1" data-name="Calque 1" transform="translate(5117 -1382)">
      <rect id="Rectangle_30" data-name="Rectangle 30" width="166.43" height="100.98" fill="#fff"/>
      <path id="Path_322" data-name="Path 322" d="M36.72,9.66H24.55V68.33l1.75.27h4.78v9.33h9.63V68.6H38.17l-1.44-.27V9.66Zm-1.16,1.33h.81V25.46h-.81V10.99Zm0,19.11h.81v4.98h-.81V30.1Zm0,9.62h.81V44.7h-.81Zm0,9.62h.81v4.98h-.81Zm0,9.57h.81v4.98h-.81Z" fill="#999"/>
      <rect id="Rectangle_31" data-name="Rectangle 31" width="25.05" height="8.67" transform="translate(70.18 69.26)" fill="#999"/>
      <path id="Path_323" data-name="Path 323" d="M80.07,59.97H73.43v.81h.25v.06h2.24v-.06h.33v.06h3.32v6.18h.04v.25h.46Z" fill="#999"/>
      <path id="Path_324" data-name="Path 324" d="M92.25,31.1H85.61v.81h.25v.06h3.57v-.06h.33v.06h1.99v2.94h.03v.34h-.03v2.9h.03v.25h.47V31.1Z" fill="#999"/>
      <path id="Path_325" data-name="Path 325" d="M133.05,58.65h-5.06v.27h.81V63.9h.31Z" fill="#999"/>
      <path id="Path_326" data-name="Path 326" d="M139.81,58.65h-6.52V63.9h1.53Z" fill="#999"/>
      <path id="Path_327" data-name="Path 327" d="M133.05,10.85H128.8v5.66Z" fill="#999"/>
      <path id="Path_328" data-name="Path 328" d="M139.81,10.59l-1.83.27h-4.69v6.85l6.52-6.85Z" fill="#999"/>
      <path id="Path_329" data-name="Path 329" d="M133.05,68.33h-5.41l-1.44.26h-2.54v9.33h5.14V73.98l4.05-5.39h.2Z" fill="#999"/>
      <path id="Path_330" data-name="Path 330" d="M133.05,49.08h-5.06v.27h.81v4.98h.31Z" fill="#999"/>
      <path id="Path_331" data-name="Path 331" d="M139.81,49.08h-6.52v5.25h1.53Z" fill="#999"/>
      <path id="Path_332" data-name="Path 332" d="M133.05,39.46h-5.06v.26h.81V44.7h.31Z" fill="#999"/>
      <path id="Path_333" data-name="Path 333" d="M139.81,39.46h-6.52V44.7h1.53Z" fill="#999"/>
      <path id="Path_334" data-name="Path 334" d="M133.05,29.84h-5.06v.26h.81v4.98h.31Z" fill="#999"/>
      <path id="Path_335" data-name="Path 335" d="M139.81,29.84h-6.52v5.24h1.53Z" fill="#999"/>
      <path id="Path_336" data-name="Path 336" d="M99.25,31.1H96.43v.81h.25v.06h2.07V33.5h.04v.25h.46Z" fill="#999"/>
      <path id="Path_337" data-name="Path 337" d="M108.16,31.1h-2.82v.81h.25v.06h2.07V33.5h.03v.25h.47Z" fill="#999"/>
      <path id="Path_338" data-name="Path 338" d="M59.91,21.47H57.09v.81h.25v.06h2.07v1.54h.04v.25h.46Z" fill="#999"/>
      <path id="Path_339" data-name="Path 339" d="M108.16,21.47h-2.82v.81h.25v.06h2.07v1.54h.03v.25h.47Z" fill="#999"/>
      <path id="Path_340" data-name="Path 340" d="M92.25,40.72H85.61v.81h.25v.06h3.57v-.06h.33v.06h1.99v2.95h.03v.33h-.03v2.9h.03v.25h.47v-7.3Z" fill="#999"/>
      <path id="Path_341" data-name="Path 341" d="M92.25,50.34H85.61v.81h.25v.06h3.57v-.06h.33v.06h1.99v2.95h.03v.33h-.03V57.4h.03v.24h.47v-7.3Z" fill="#999"/>
      <path id="Path_342" data-name="Path 342" d="M92.25,59.97H85.61v.81h.25v.06h3.57v-.06h.33v.06h1.99v2.94h.03v.33h-.03v2.91h.03v.25h.47v-7.3Z" fill="#999"/>
      <path id="Path_343" data-name="Path 343" d="M80.07,40.72H73.43v.81h.25v.06h2.24v-.06h.33v.06h3.32v6.18h.04v.25h.46Z" fill="#999"/>
      <path id="Path_344" data-name="Path 344" d="M80.07,31.1H73.43v.81h.25v.06h2.24v-.06h.33v.06h3.32v6.18h.04v.25h.46Z" fill="#999"/>
      <path id="Path_345" data-name="Path 345" d="M67.56,11.85H64.24v.81h.25v.06h2.57V18.9h.04v.25h.46Z" fill="#999"/>
      <path id="Path_346" data-name="Path 346" d="M133.29,68.33v.26h4.77l1.75-.26Z" fill="#999"/>
      <path id="Path_347" data-name="Path 347" d="M68.82,31.1H66v.81h.25v.06h2.07V33.5h.04v.25h.46Z" fill="#999"/>
      <path id="Path_348" data-name="Path 348" d="M59.91,31.1H57.09v.81h.25v.06h2.07V33.5h.04v.25h.46Z" fill="#999"/>
      <path id="Path_349" data-name="Path 349" d="M68.82,40.72H66v.81h.25v.06h2.07v1.54h.04v.25h.46Z" fill="#999"/>
      <path id="Path_350" data-name="Path 350" d="M59.91,40.72H57.09v.81h.25v.06h2.07v1.54h.04v.25h.46Z" fill="#999"/>
      <path id="Path_351" data-name="Path 351" d="M59.91,50.34H57.09v.81h.25v.06h2.07v1.54h.04V53h.46Z" fill="#999"/>
      <path id="Path_352" data-name="Path 352" d="M68.82,59.97H66v.81h.25v.06h2.07v1.53h.04v.25h.46Z" fill="#999"/>
      <path id="Path_353" data-name="Path 353" d="M59.91,59.97H57.09v.81h.25v.06h2.07v1.53h.04v.25h.46Z" fill="#999"/>
      <path id="Path_354" data-name="Path 354" d="M99.25,40.72H96.43v.81h.25v.06h2.07v1.54h.04v.25h.46Z" fill="#999"/>
      <path id="Path_355" data-name="Path 355" d="M99.25,50.34H96.43v.81h.25v.06h2.07v1.54h.04V53h.46Z" fill="#999"/>
      <path id="Path_356" data-name="Path 356" d="M99.25,59.97H96.43v.81h.25v.06h2.07v1.53h.04v.25h.46Z" fill="#999"/>
      <path id="Path_357" data-name="Path 357" d="M108.16,40.72h-2.82v.81h.25v.06h2.07v1.54h.03v.25h.47Z" fill="#999"/>
      <path id="Path_358" data-name="Path 358" d="M108.16,50.34h-2.82v.81h.25v.06h2.07v1.54h.03V53h.47Z" fill="#999"/>
      <path id="Path_359" data-name="Path 359" d="M108.16,59.97h-2.82v.81h.25v.06h2.07v1.53h.03v.25h.47Z" fill="#999"/>
      <path id="Path_360" data-name="Path 360" d="M101.04,11.85H97.72v.81h.25v.06h2.57V18.9h.04v.25h.46Z" fill="#999"/>
      <path id="Path_361" data-name="Path 361" d="M88.43,21.47H85.61v.81h.25v.06h2.07v1.54h.04v.25h.46Z" fill="#999"/>
      <path id="Path_362" data-name="Path 362" d="M80,21.47H77.18v.81h.25v.06H79.5v1.54h.04v.25H80Z" fill="#999"/>
      <path id="Path_363" data-name="Path 363" d="M81.27,79.05V77.92m13.19,1.13.78-1.13m0,0h31.08M.12,83.7H10.37m128.4,0h1.67" fill="none" stroke="#000" stroke-linecap="round" stroke-linejoin="round" stroke-width="0.12"/>
      <path id="Path_364" data-name="Path 364" d="M166.3,93.88H.12V79.56l37.92-1.64h95.25l5.85.83,4.38.03,22.78.13Z" fill="#c7c5c2"/>
      <path id="Path_365" data-name="Path 365" d="M89.76,64.11v2.9M92,64.11H89.76M92,67.01v-2.9m-2.24,2.9H92m-2.57,0v-6.8m-3.57,6.8h3.57m-3.57-6.8v6.8m3.57-6.8H85.86M92,63.78V60.21m-2.24,3.57H92m-2.24-3.57v3.57M92,60.21H89.76m-4.15-.25h6.64m-6.64,7.3v-7.3m6.64,7.3H85.61m6.64-7.3v7.3m15.66-43.39h-2.32m2.32-2.16v2.16m-2.32-2.16h2.32m-2.32,2.16V21.71m-.25-.25h2.82m-2.82,2.65V21.46m2.82,2.65h-2.82m2.82-2.65v2.65M131.59,67.2l1.45.27m-1.45-3.58v3.32m-3.6-3.32h3.6M31.07,67.21h-4.7m111.53,0,1.91.27M137.9,63.9v3.32m-4.62-3.32h4.62M70.18,69.26v8.67m25.05-8.67H70.18m25.05,8.67V69.26M128.8,63.9V58.92m11.01,8.56V58.65M31.07,67.48h.24m-.24-8.83h.24m4.25,5.24V58.91m-4.25-.27h5.06m-5.06,8.83V58.64m5.06,8.83H31.31m5.06-8.83v8.83m-11.82,0V58.64m104.26-33.2V10.84m11.01,18.19V10.59M128,10.86V29.05m5.06-18.19H128m5.06,18.19V10.85M128,29.04h5.06m-5.41,0H128m-96.92,0h.24m-.24-18.05h.24m4.25,14.47V10.99M31.32,29.04V20.48m5.06,8.56H31.32m5.06-8.56v8.56m-11.82,0V10.72m99.12,67.2V68.59m5.14,9.33V68.59m4.49,9.33v-9.6m4.78.27,1.75-.27m-6.53.27h4.78M31.1,77.92V68.59m4.49,9.33V68.59m93.24-14.27V49.34m4.49,8.56V49.07m6.53,8.83h-6.53m6.53,0V49.07m0,9.57V57.9m-6.53.74h6.53m-6.53,8.83V58.64m6.53,8.83h-6.53m6.53.85v-.85m-12.17.85h12.17m-13.62.27,1.44-.27m3.96.27h-5.41m6.85-.27-1.44.27m1.44,9.33v-9.6M128.01,57.9V49.07m5.06,8.83h-5.06m5.06-8.83V57.9M35.58,54.32V49.34M31.09,57.9V49.07m0,8.83h.24m-6.77,0h6.53m1.68,10.68h5.29m-6.73,0h1.44M36.38,57.9V49.07M31.32,57.9h5.06m-5.06-8.83V57.9m-6.77,0V49.07m0,9.57V57.9m6.53.74H24.55m6.53,8.83V58.64m-6.53,8.83h6.53m-6.53.85v-.85m1.75,1.12-1.75-.27m6.53.27H26.3m5.02,0h-.24m.24,9.33V68.59M128.81,44.7V39.72m4.49,8.56V39.45m6.53,8.83H133.3m-5.3,0V39.45m5.06,8.83H128m5.06-8.83v8.83M35.57,44.7V39.72m-4.49,8.56V39.45m0,8.83h.24m-6.77,0h6.53m5.3,0V39.45m-5.06,8.83h5.06m-5.06-8.83v8.83m-6.77,0V39.45m0,9.62v-.8m6.53.8H24.55m6.77,0h-.24m5.3,0H31.32m97.49-14V30.09m11.01,8.56V29.83M31.08,38.65V29.83m0,8.82h.24m-6.77,0h6.53m0-8.82h.24m-6.77,0h6.53m4.49,5.24V30.09m-4.25-.26h5.06m-5.06,8.82V29.83m5.06,8.82H31.32m5.06-8.82v8.82M166.31,93.87H.12m143.4-15.1,22.78.13m-27.16-.16,4.39.03m-10.24-.86,5.85.83m-12.82-.83h6.97m-38.05,0h31.08m-45.05,0H95.24m-57.19,0H81.27M.12,79.56l37.92-1.63" fill="none" stroke="#000" stroke-linecap="round" stroke-linejoin="round" stroke-width="0.25"/>
      <path id="Path_366" data-name="Path 366" d="M67.31,18.9V12.1m-2.82,6.8h2.82m-2.82-6.8v6.8m2.82-6.8H64.49m-.25-.25v7.3m3.32-7.3H64.24m3.32,7.3v-7.3m-3.32,7.3h3.32" fill="none" stroke="#000" stroke-linecap="round" stroke-linejoin="round" stroke-width="0.12"/>
      <path id="Path_367" data-name="Path 367" d="M85.61,50.34v7.3m6.64-7.3H85.61m6.64,7.3v-7.3m-6.64,7.3h6.64M75.92,44.87v2.9m-2.24-2.9h2.24m-2.24,2.9v-2.9m2.24,2.9H73.68m2.57,0v-6.8m3.57,6.8H76.25m3.57-6.8v6.8m-3.57-6.8h3.57m-6.14,3.57V40.97m2.24,3.57H73.68m2.24-3.57v3.57m-2.24-3.57h2.24m-2.49-.25h6.64m-6.64,7.3v-7.3m6.64,7.3H73.43m6.64-7.3v7.3m9.69-3.15v2.9M92,44.87H89.76M92,47.77v-2.9m-2.24,2.9H92m-2.57,0v-6.8m-3.57,6.8h3.57m-3.57-6.8v6.8m3.57-6.8H85.86M92,44.54V40.97m-2.24,3.57H92m-2.24-3.57v3.57M92,40.97H89.76m-4.15-.25h6.64m-6.64,7.3v-7.3m6.64,7.3H85.61m6.64-7.3v7.3M75.92,35.24v2.9m-2.24-2.9h2.24m-2.24,2.9v-2.9m2.24,2.9H73.68m2.57,0v-6.8m3.57,6.8H76.25m3.57-6.8v6.8m-3.57-6.8h3.57m-6.14,3.57V31.34m2.24,3.57H73.68m2.24-3.57v3.57m-2.24-3.57h2.24M99,33.5V31.34M96.68,33.5H99m-2.32-2.16V33.5M99,31.34H96.68m2.57-.25v2.65m-2.82-2.65h2.82m-2.82,2.65V31.09m2.82,2.65H96.43m11.48-.25V31.33m-2.32,2.16h2.32m-2.32-2.16v2.16m2.32-2.16h-2.32m-.25,2.41V31.09m2.82,2.65h-2.82m2.82-2.65v2.65m-2.82-2.65h2.82m-18.4,4.15v2.9M92,35.24H89.76M92,38.14v-2.9m-2.24,2.9H92m-2.57,0v-6.8m-3.57,6.8h3.57m-3.57-6.8v6.8m3.57-6.8H85.86M92,34.91V31.34m-2.24,3.57H92m-2.24-3.57v3.57M92,31.34H89.76m-16.33-.25v7.3m6.64-7.3H73.43m6.64,7.3v-7.3m-6.64,7.3h6.64m5.54-7.3v7.3m6.64-7.3H85.61m6.64,7.3v-7.3m-6.64,7.3h6.64M137.89,67.2h.02M73.44,59.95v7.3m6.64-7.3H73.44m6.64,7.3v-7.3m-6.64,7.3h6.64M24.55,68.31H36.72M59.67,23.86V21.71m-2.32,2.15h2.32m-2.32-2.15v2.15m2.32-2.15H57.35m-.25,2.4V21.46m2.82,2.65H57.1m2.82-2.65v2.65M57.1,21.46h2.82" fill="none" stroke="#000" stroke-linecap="round" stroke-linejoin="round" stroke-width="0.25"/>
      <path id="Path_368" data-name="Path 368" d="M73.43,57.52l-.12.12.12.13h6.64l.12-.13-.12-.12Z"/>
      <path id="Path_369" data-name="Path 369" d="M79.95,50.34v7.3l.12.13.12-.13v-7.3l-.12-.12Z"/>
      <path id="Path_370" data-name="Path 370" d="M73.43,50.22l-.12.12.12.13h6.64l.12-.13-.12-.12Z"/>
      <path id="Path_371" data-name="Path 371" d="M73.31,50.34v7.3l.12.13.13-.13v-7.3l-.13-.12Z"/>
      <path id="Path_372" data-name="Path 372" d="M89.76,54.49v2.9M92,54.49H89.76M92,57.39v-2.9m-2.24,2.9H92m-2.57,0v-6.8m-3.57,6.8h3.57m-3.57-6.8v6.8m3.57-6.8H85.86M92,54.16V50.59m-2.24,3.57H92m-2.24-3.57v3.57M92,50.59H89.76M75.92,64.11v2.9m-2.24-2.9h2.24m-2.24,2.9v-2.9m2.24,2.9H73.68m2.57,0v-6.8m3.57,6.8H76.25m3.57-6.8v6.8m-3.57-6.8h3.57m-6.14,3.57V60.21m2.24,3.57H73.68m2.24-3.57v3.57m-2.24-3.57h2.24" fill="none" stroke="#000" stroke-linecap="round" stroke-linejoin="round" stroke-width="0.25"/>
      <path id="Path_373" data-name="Path 373" d="M73.68,50.47l-.12.12.12.13h2.24l.13-.13-.13-.12Z"/>
      <path id="Path_374" data-name="Path 374" d="M75.8,50.59v3.57l.12.12.13-.12V50.59l-.13-.12Z"/>
      <path id="Path_375" data-name="Path 375" d="M73.68,54.03l-.12.13.12.12h2.24l.13-.12-.13-.13Z"/>
      <path id="Path_376" data-name="Path 376" d="M73.56,50.59v3.57l.12.12.13-.12V50.59l-.13-.12Z"/>
      <path id="Path_377" data-name="Path 377" d="M76.26,50.47l-.13.12.13.13h3.56l.13-.13-.13-.12Z"/>
      <path id="Path_378" data-name="Path 378" d="M79.7,50.59V57.4l.12.12.13-.12V50.59l-.13-.12Z"/>
      <path id="Path_379" data-name="Path 379" d="M76.26,57.27l-.13.13.13.12h3.56l.13-.12-.13-.13Z"/>
      <path id="Path_380" data-name="Path 380" d="M76.13,50.59V57.4l.13.12.12-.12V50.59l-.12-.12Z"/>
      <path id="Path_381" data-name="Path 381" d="M73.68,57.27l-.12.13.12.12h2.24l.13-.12-.13-.13Z"/>
      <path id="Path_382" data-name="Path 382" d="M73.56,54.49V57.4l.12.12.13-.12V54.49l-.13-.12Z"/>
      <path id="Path_383" data-name="Path 383" d="M73.68,54.37l-.12.12.12.12h2.24l.13-.12-.13-.12Z"/>
      <path id="Path_384" data-name="Path 384" d="M75.8,54.49V57.4l.12.12.13-.12V54.49l-.13-.12Z"/>
      <path id="Path_385" data-name="Path 385" d="M26.37,30.1h4.7m-6.53-.26,1.83.26m6.38,0h3.61m-5.06-.26,1.44.26m-6.38,9.62h4.7m-6.53-.27,1.83.27m6.38,0h3.61m-5.06-.27,1.44.27m-6.38,9.62h4.7m-6.53-.27,1.83.27m6.38,0h3.61m-5.06-.27,1.44.27m-6.38,9.57h4.7m-6.53-.27,1.83.27m6.38,0h3.61m-5.06-.27,1.44.27m3.96,9.41,1.33.27M31.03,29.04V20.48M24.5,29.04h6.53m-6.53.8v-.8m0,9.62V29.84m0,9.62v-.8m6.53.8H24.5m6.77,0h-.24m5.3,0H31.27m39,38.3V70.59m20.28,7.17H70.27m20.28-7.17v7.17M70.27,70.59H90.55m3.12,7.26H90.68m2.99-7.26v7.26m-2.99-7.26h2.99m-2.99,7.26V70.59m4.38-1.19H70.27m24.79,1.06V69.4M70.27,70.46H95.06M70.27,69.4v1.06m23.53.13h1.26M93.8,77.76V70.59m1.26,7.17H93.8m1.26-7.17v7.17" fill="none" stroke="#000" stroke-linecap="round" stroke-linejoin="round" stroke-width="0.25"/>
      <path id="Path_386" data-name="Path 386" d="M24.54,9.66H36.71M24.54,10.72V9.66m1.83,1.33h4.7m-6.53-.26,1.83.26" fill="none" stroke="#000" stroke-linecap="round" stroke-linejoin="round" stroke-width="0.12"/>
      <path id="Path_387" data-name="Path 387" d="M38.04,68.59h88.27m13.5-20.31V39.45m0,9.62v-.8m-6.53.8h6.53M127.64,68.32V9.66m.35,20.18v8.82m5.06-8.82h-5.06m5.06,8.82V29.84m-5.06,8.82h5.06m-5.06.8h5.06m-5.06,9.62h5.06m-5.06,9.57v8.83m5.06-8.83h-5.06m5.06,8.83V58.65m-5.06,8.83h5.06M131.6,28.77H128m9.9,0h-4.6m-1.69,0,1.45.27m-1.45-3.58v3.32m-3.6-3.32h3.6m6.31,3.32,1.91.27m-1.91-3.58v3.32m-4.62-3.32h4.62m-6.31,12.94h-3.6m3.61-8.3,1.44-.26m-5.06.26h3.61m6.38,0,1.83-.26m-6.53.26h4.7m-.1,8.3h-4.6m-1.69,0,1.45.26m-1.45-3.58v3.32M128,35.09h3.6m6.31,3.32,1.91.26m-1.91-3.58v3.32m-4.62-3.32h4.62M131.6,48.03H128m3.61-8.29,1.44-.27m-5.06.27h3.61m6.38,0,1.83-.27m-6.53.27h4.7m-.1,8.29h-4.6m-1.69,0,1.45.27m-1.45-3.58v3.32m-3.6-3.32h3.6m6.31,3.32,1.91.27m-1.91-3.58v3.32m-4.62-3.32h4.62m-6.31,12.94h-3.6m3.61-8.29,1.44-.27m-5.06.27h3.61m6.38,0,1.83-.27m-6.53.27h4.7m-.1,8.29h-4.6m-1.69,0,1.45.27m-1.45-3.58v3.32m-3.6-3.32h3.6m6.31,3.32,1.91.27m-1.91-3.58v3.32m-4.62-3.32h4.62m-6.31,12.89h-3.6m3.61-8.3,1.44-.27m-5.06.27h3.61m6.38,0,1.83-.27m-6.53.27h4.7m-.1,8.3h-4.6M36.37,28.77h-3.6m0,0-1.45.27m1.45-3.58v3.32m3.6-3.32h-3.6m-6.39,3.32-1.83.27m1.83-3.58v3.32m4.7-3.32h-4.7m4.7,3.32h-4.7m4.7.27h.24m5.06,9.36h-3.6m0,0-1.45.26m1.45-3.58v3.32m3.6-3.32h-3.6m-6.39,3.32-1.83.26m1.83-3.58v3.32m4.7-3.32h-4.7m4.7,3.32h-4.7m4.7.26h.24m5.06,9.36h-3.6m0,0-1.45.27m1.45-3.58v3.32m3.6-3.32h-3.6M26.4,48.05l-1.83.27m1.83-3.58v3.32m4.7-3.32H26.4m4.7,3.32H26.4m4.7.27h.24m5.06,9.36H32.8m0,0-1.45.27m1.45-3.58V57.7m3.6-3.32H32.8M26.41,57.7l-1.83.27m1.83-3.58v3.32m4.7-3.32h-4.7m4.7,3.32h-4.7m4.7.27h.24m5.06,9.3h-3.6m0,0-1.45.27m1.45-3.58v3.32m3.6-3.32h-3.6m-6.39,3.32-1.83.27m1.83-3.58V67.3m4.7-3.32h-4.7" fill="none" stroke="#000" stroke-linecap="round" stroke-linejoin="round" stroke-width="0.25"/>
      <line id="Line_1584" data-name="Line 1584" x2="50.98" transform="translate(30.29 77.92)" fill="none" stroke="#000" stroke-linecap="round" stroke-linejoin="round" stroke-width="0.12"/>
      <path id="Path_388" data-name="Path 388" d="M6.43,79.05l-6.3.38m30.17-1.5L6.43,79.06" fill="none" stroke="#000" stroke-linecap="round" stroke-linejoin="round" stroke-width="0.12"/>
      <path id="Path_389" data-name="Path 389" d="M59.66,43.13V40.97m-2.32,2.16h2.32m-2.32-2.16v2.16m2.32-2.16H57.34m-.25,2.41V40.72m2.82,2.66H57.09m2.82-2.66v2.66m-2.82-2.66h2.82m8.66.25H66.25m2.32,2.16V40.97m-2.32,2.16h2.32m-2.32-2.16v2.16M66,40.72h2.82M66,43.38V40.72m2.82,2.66H66m2.82-2.66v2.66m-9.16-9.87V31.35m-2.32,2.16h2.32m-2.32-2.16v2.16m2.32-2.16H57.34m-.25,2.41V31.1m2.82,2.66H57.09m2.82-2.66v2.66M57.09,31.1h2.82m8.66.25H66.25m2.32,2.16V31.35m-2.32,2.16h2.32m-2.32-2.16v2.16M66,31.1h2.82M66,33.76V31.1m2.82,2.66H66m2.82-2.66v2.66" fill="none" stroke="#000" stroke-linecap="round" stroke-linejoin="round" stroke-width="0.25"/>
      <path id="Path_390" data-name="Path 390" d="M68.7,50.34V53l.12.12.12-.12V50.34l-.12-.12Z"/>
      <path id="Path_391" data-name="Path 391" d="M66,52.87l-.12.13.12.12h2.82l.13-.12-.13-.13Z"/>
      <path id="Path_392" data-name="Path 392" d="M65.88,50.34V53l.12.12.13-.12V50.34L66,50.22Z"/>
      <path id="Path_393" data-name="Path 393" d="M66,50.22l-.12.12.12.13h2.82l.13-.13-.13-.12Z"/>
      <path id="Path_394" data-name="Path 394" d="M66.13,50.59v2.16l.12.12.12-.12V50.59l-.12-.12Z"/>
      <path id="Path_395" data-name="Path 395" d="M66.25,52.62l-.12.13.12.12h2.32l.13-.12-.13-.13Z"/>
      <path id="Path_396" data-name="Path 396" d="M68.45,50.59v2.16l.12.12.13-.12V50.59l-.13-.12Z"/>
      <path id="Path_397" data-name="Path 397" d="M66.25,50.47l-.12.12.12.13h2.32l.13-.13-.13-.12Z"/>
      <path id="Path_398" data-name="Path 398" d="M40.7,77.93V68.6m29.48.67v8.67m25.06-8.67H70.18m25.06,8.67V69.27M70.19,77.94H95.24m12.67-15.55V60.23m-2.32,2.16h2.32m-2.32-2.16v2.16m2.32-2.16h-2.32m-.25,2.41V59.99m2.82,2.65h-2.82m2.82-2.65v2.65m-2.82-2.65h2.82m-.25-7.22V50.62m-2.32,2.15h2.32m-2.32-2.15v2.15m2.32-2.15h-2.32m-.25,2.4V50.37m2.82,2.65h-2.82m2.82-2.65v2.65m-2.82-2.65h2.82m-.25-7.22V40.99m-2.32,2.16h2.32m-2.32-2.16v2.16m2.32-2.16h-2.32m-.25,2.41V40.75m2.82,2.65h-2.82m2.82-2.65V43.4m-2.82-2.65h2.82M99,60.24H96.68M99,62.4V60.24M96.68,62.4H99m-2.32-2.16V62.4m-.25-2.41h2.82m-2.82,2.65V59.99m2.82,2.65H96.43m2.82-2.65v2.65M99,50.61H96.68M99,52.76V50.61m-2.32,2.15H99m-2.32-2.15v2.15m-.25-2.4h2.82m-2.82,2.65V50.36m2.82,2.65H96.43m2.82-2.65v2.65M99,40.98H96.68M99,43.14V40.98m-2.32,2.16H99m-2.32-2.16v2.16m-.25-2.41h2.82m-2.82,2.65V40.73m2.82,2.65H96.43m2.82-2.65v2.65m-39.59,19V60.22m-2.32,2.16h2.32m-2.32-2.16v2.16m2.32-2.16H57.34m-.25,2.41V59.98m2.82,2.65H57.09m2.82-2.65v2.65m-2.82-2.65h2.82m8.66.25H66.25m2.32,2.16V60.23m-2.32,2.16h2.32m-2.32-2.16v2.16M66,59.98h2.82M66,62.63V59.98m2.82,2.65H66m2.82-2.65v2.65m-9.16-9.87V50.61m-2.32,2.15h2.32m-2.32-2.15v2.15m2.32-2.15H57.34m-.25,2.4V50.36m2.82,2.65H57.09m2.82-2.65v2.65m-2.82-2.65h2.82" fill="none" stroke="#000" stroke-linecap="round" stroke-linejoin="round" stroke-width="0.25"/>
      <path id="Path_399" data-name="Path 399" d="M79.76,23.88H77.44m2.32-2.15v2.15m-2.32-2.15h2.32m-2.32,2.15V21.73m-.25-.25h2.82m-2.82,2.65V21.48m2.82,2.65H77.19m2.82-2.65v2.65m8.18-.25H85.87m2.32-2.15v2.15m-2.32-2.15h2.32m-2.32,2.15V21.73m-.25-.25h2.82m-2.82,2.65V21.48m2.82,2.65H85.62m2.82-2.65v2.65M100.8,18.9V12.1m-2.82,6.8h2.82m-2.82-6.8v6.8m2.82-6.8H97.98m-.25-.25v7.3m3.32-7.3H97.73m3.32,7.3v-7.3m-3.32,7.3h3.32m0,0v-7.3m-3.32,7.3h3.32m-3.32-7.3v7.3m3.32-7.3H97.73" fill="none" stroke="#000" stroke-linecap="round" stroke-linejoin="round" stroke-width="0.12"/>
      <path id="Path_400" data-name="Path 400" d="M36.72,19.15V68.33M124.11,9.2H81.27m42.84.47V9.2m3.53.47h-3.53m15.71,0H127.65m12.17.93V9.67m-1.83,1.19,1.83-.27m-6.53.27h4.7m-4.7,18.19V10.85m6.53,18.19h-6.53m6.53.8v-.8m-6.53.8h6.53m-6.53,8.83V29.84m6.53,8.83h-6.53m6.53.8v-.8m-6.53.8h6.53" fill="none" stroke="#000" stroke-linecap="round" stroke-linejoin="round" stroke-width="0.25"/>
      <path id="Path_401" data-name="Path 401" d="M36.37,10.99v9.49m-5.06-9.49h5.06m-5.06,9.49V10.99m-.24,0h-4.7m4.7,9.49V10.99m5.65-1.33v9.49m4.46-9.49H36.72m4.46-.47v.47m40.09-.47H41.18" fill="none" stroke="#000" stroke-linecap="round" stroke-linejoin="round" stroke-width="0.12"/>
    </g>
  </g>
</svg>
