<svg id="plan_building" data-name="plan building" xmlns="http://www.w3.org/2000/svg" width="49.8" height="49.8" viewBox="0 0 49.8 49.8">
  <path id="Path_35" data-name="Path 35" d="M47.887,9.114H23.343a1.779,1.779,0,1,0,0,3.557H47.887a.356.356,0,0,1,.356.356v34.86a.356.356,0,0,1-.356.356H5.913a.356.356,0,0,1-.356-.356V39.919a5.567,5.567,0,0,1,5.122-2.348,5.9,5.9,0,0,1,4.02,2.7,1.779,1.779,0,0,0,1.53.854,1.494,1.494,0,0,0,.48,0,1.779,1.779,0,0,0,1.3-1.779V10A8,8,0,0,0,2,10V21.564a1.779,1.779,0,1,0,3.557,0V10a4.446,4.446,0,1,1,8.893,0V35.17a8.448,8.448,0,0,0-3.344-1.156,8.893,8.893,0,0,0-5.549,1.192V28.679a1.779,1.779,0,0,0-3.557,0V47.887A3.931,3.931,0,0,0,5.913,51.8H47.887A3.931,3.931,0,0,0,51.8,47.887V13.027A3.931,3.931,0,0,0,47.887,9.114Z" transform="translate(-2 -2)" fill="#222"/>
  <path id="Path_36" data-name="Path 36" d="M15.027,23.949l.534-.534v8.146a1.779,1.779,0,0,0,1.779,1.779H31.568a1.779,1.779,0,0,0,1.779-1.779V23.415l.534.534a1.786,1.786,0,0,0,2.49-2.561L32.99,18.115a1.636,1.636,0,0,0-.462-.462l-4.18-4.073a5.6,5.6,0,0,0-7.79,0l-4.18,4.073a1.636,1.636,0,0,0-.462.462l-3.379,3.273a1.786,1.786,0,1,0,2.49,2.561Zm8.021-7.826a2.01,2.01,0,0,1,2.81,0l3.931,3.824v9.836H19.118V19.947Z" transform="translate(5.782 5.789)" fill="#222"/>
</svg>
