<svg xmlns="http://www.w3.org/2000/svg" width="55.507" height="54.516" viewBox="0 0 55.507 54.516">
  <path id="return" d="M3.938,36.147a1.735,1.735,0,1,1-3.391.732,24.573,24.573,0,0,1,13.1-27.2L8.877,7.927a1.734,1.734,0,0,1,1.195-3.257l9.134,3.351a1.734,1.734,0,0,1,1.071,2.1L17.844,18.66a1.735,1.735,0,0,1-3.336-.951l1.515-5.316A21.1,21.1,0,0,0,3.938,36.147ZM38.915,47.079A21.2,21.2,0,0,1,11.98,48.6l5.25-1.318a1.735,1.735,0,1,0-.845-3.365L7.779,46.077a1.734,1.734,0,0,0-1.287,1.979l1.665,9.586a1.734,1.734,0,1,0,3.418-.594l-.888-5.114a24.591,24.591,0,0,0,13.848,4.251q.461,0,.924-.017a24.5,24.5,0,0,0,15.825-6.555,1.735,1.735,0,0,0-2.369-2.535ZM55.336,34.954a1.734,1.734,0,0,0-2.3-.845L48.67,36.13A24.561,24.561,0,0,0,30.91,7.975a1.735,1.735,0,0,0-.9,3.351,21.065,21.065,0,0,1,15.12,24.822,1.736,1.736,0,0,0-.039.341l-2.957-5.315A1.735,1.735,0,1,0,39.1,32.861l4.315,7.755a1.734,1.734,0,0,0,2.245.731l8.829-4.089A1.735,1.735,0,0,0,55.336,34.954Z" transform="translate(0.01 -4.564)"/>
</svg>
