<svg xmlns="http://www.w3.org/2000/svg" width="55.955" height="50.361" viewBox="0 0 55.955 50.361">
  <g id="terrace" transform="translate(-0.001 -0.499)">
    <path id="Path_31" data-name="Path 31" d="M57.775,31.276h-5.6V17.287H74.562a1.4,1.4,0,0,0,1.4-1.4v-2.8a1.4,1.4,0,0,0-.8-1.265L51.377.634a1.378,1.378,0,0,0-1.191,0L26.4,11.825a1.4,1.4,0,0,0-.8,1.265v2.8a1.4,1.4,0,0,0,1.4,1.4H49.382V31.276h-5.6a1.4,1.4,0,0,0,0,2.8h5.6V48.062h-1.4a1.4,1.4,0,1,0,0,2.8h5.6a1.4,1.4,0,0,0,0-2.8h-1.4V34.073h5.6a1.4,1.4,0,1,0,0-2.8ZM28.4,13.979,50.781,3.446,73.163,13.979v.51H28.4Zm0,0" transform="translate(-22.802 0)"/>
    <path id="Path_32" data-name="Path 32" d="M13.919,291.45a1.4,1.4,0,0,0-1.328-.956H5.206l-2.477-7.437a1.4,1.4,0,0,0-2.656.885l2.65,7.95-2.65,7.951a1.4,1.4,0,0,0,2.655.885l2.479-7.437h6.376l2.478,7.437a1.4,1.4,0,0,0,1.327.956,1.381,1.381,0,0,0,.443-.071,1.4,1.4,0,0,0,.885-1.77Zm0,0" transform="translate(0 -250.825)"/>
    <path id="Path_33" data-name="Path 33" d="M372.459,291.89l2.65-7.951a1.4,1.4,0,1,0-2.656-.885l-2.478,7.437h-7.385a1.4,1.4,0,0,0-1.328.956l-2.8,8.393a1.4,1.4,0,0,0,2.655.885l2.478-7.437h6.376l2.479,7.437a1.4,1.4,0,0,0,2.657-.885Zm0,0" transform="translate(-319.225 -250.822)"/>
  </g>
</svg>
