<svg xmlns="http://www.w3.org/2000/svg" width="43.171" height="49.8" viewBox="0 0 43.171 49.8">
  <g id="tree" transform="translate(-34.077)">
    <g id="Group_17" data-name="Group 17" transform="translate(34.077)">
      <path id="Path_34" data-name="Path 34" d="M69.1,11.62a13.581,13.581,0,0,0-26.877,0A13.58,13.58,0,1,0,54.2,35.963V49.8h2.918V35.963A13.58,13.58,0,1,0,69.1,11.62ZM63.67,34.729a10.648,10.648,0,0,1-6.548-2.249V23.556l6.544-3.441-1.358-2.583-5.186,2.727V14.515H54.2V26.726L49.018,24,47.66,26.582,54.2,30.023V32.48A10.661,10.661,0,1,1,44.069,14.026l.893-.319.071-.945a10.661,10.661,0,0,1,21.26,0l.071.945.893.319a10.662,10.662,0,0,1-3.587,20.7Z" transform="translate(-34.077)"/>
    </g>
  </g>
</svg>
